<?xml version="1.0" encoding="utf-8"?>
<!-- Generator: Adobe Illustrator 16.0.3, SVG Export Plug-In . SVG Version: 6.00 Build 0)  -->
<!DOCTYPE svg PUBLIC "-//W3C//DTD SVG 1.1//EN" "http://www.w3.org/Graphics/SVG/1.1/DTD/svg11.dtd">
<svg version="1.1" id="Layer_1" xmlns="http://www.w3.org/2000/svg" xmlns:xlink="http://www.w3.org/1999/xlink" x="0px" y="0px"
	 width="59.02px" height="55.795px" viewBox="0 0 59.02 55.795" enable-background="new 0 0 59.02 55.795" xml:space="preserve">
<path d="M56.922,31.858c0.349-2.322,0.408-4.697,0.18-7.123h-3.801c-0.283-2.012-0.864-3.943-1.693-5.747l3.292-2.286
	c-1.043-2.11-2.347-4.096-3.918-5.954l-3.376,2.347c-1.067-1.131-2.26-2.161-3.555-3.065l1.831-3.779
	c-1.94-1.33-4.052-2.419-6.334-3.269l-1.874,3.874c-1.6-0.52-3.277-0.883-5.012-1.067h0.001V1.514
	c-2.421-0.227-4.796-0.166-7.124,0.182v4.351c-1.654,0.3-3.245,0.762-4.758,1.366l-2.088-3.815c-2.235,0.963-4.287,2.157-6.16,3.58
	l2.1,3.837c-1.187,0.963-2.271,2.032-3.233,3.194l-3.872-2.053c-1.399,1.891-2.563,3.962-3.497,6.21l3.777,2.004
	c-0.524,1.396-0.903,2.859-1.117,4.366H2.538c-0.228,2.425-0.17,4.8,0.182,7.123h4.208c0.227,1.074,0.535,2.119,0.924,3.132
	l-3.42,1.972c1.013,2.215,2.251,4.24,3.716,6.082l3.322-1.92c1.008,1.207,2.147,2.313,3.399,3.299l-1.828,3.441
	c2.033,1.338,4.16,2.398,6.377,3.178l1.645-3.094c1.428,0.551,2.926,0.977,4.476,1.254v3.656c2.329,0.344,4.703,0.406,7.124,0.178
	v-3.578c1.633-0.172,3.216-0.504,4.733-0.979l1.721,3.246c2.218-0.783,4.344-1.845,6.378-3.183l-1.681-3.162
	c1.343-0.916,2.578-1.959,3.687-3.114l2.9,2.174c1.637-1.803,3.012-3.738,4.125-5.811l-2.982-2.234
	c0.674-1.438,1.189-2.957,1.522-4.537H56.922z M29.826,44.319c-9.383,0-17.036-7.616-17.036-16.949
	c0-9.336,7.653-16.952,17.036-16.952c9.384,0,17.035,7.615,17.035,16.952C46.861,36.703,39.21,44.319,29.826,44.319z"/>
<g>
	<path d="M28.195,22.232c-0.036-0.918-0.03-2.188,0.073-3.506h-2.872L28.195,22.232z M28.375,35.181
		c-0.007-0.773-0.028-1.632-0.069-2.572h-0.009l-0.011-0.957l0.009-0.002c-0.004-0.211-0.01-0.424-0.013-0.635l-3.343,4.166H28.375z
		 M30.281,32.255l-0.019,0.003c0.028,0.776,0.035,1.812-0.028,2.921h1.103c1.714,0,3.556,0.119,4.271-0.293
		c0.715-0.414,1.002-1.187,1.45-2.322h0.59l-0.207,2.451c-0.204,0.836-0.213,1.924-1.553,1.924H30.08
		c-0.323,2.578-1.092,5.033-2.764,5.178c-2.604,0.227-2.828-3.24-1.042-2.99c1.007-0.033,1.354,1.717,1.86-0.066
		c0.114-0.551,0.187-1.26,0.22-2.121h-6.207l6.104-7.494c-0.017-0.805-0.024-1.585-0.028-2.288h0.001l-0.02-1.508L21.993,17.8h6.365
		c0.307-2.642,1.072-5.217,2.786-5.366c2.603-0.227,2.828,3.243,1.04,2.99c-1.009-0.299-1.522-1.608-1.862,0.067
		c-0.122,0.592-0.192,1.363-0.221,2.309h4.389c0.921,0,2.067,0.057,2.304,0.244c0.237,0.19,0.257,3.279,0.301,3.508h-0.651
		c-0.46-1.428-0.54-1.873-1.293-2.382c-0.75-0.511-2.745-0.443-4.369-0.443h-0.699c-0.005,0.936,0.02,2.007,0.071,3.216l0.007-0.002
		l0.01,0.959l-0.008,0.001c0.016,0.635,0.029,1.249,0.041,1.848l1.548,1.941l-1.502,1.872l0.03,2.732l0.004-0.001L30.281,32.255z"/>
</g>
</svg>
