<?xml version="1.0" encoding="utf-8"?>
<!-- Generator: Adobe Illustrator 16.0.3, SVG Export Plug-In . SVG Version: 6.00 Build 0)  -->
<!DOCTYPE svg PUBLIC "-//W3C//DTD SVG 1.1//EN" "http://www.w3.org/Graphics/SVG/1.1/DTD/svg11.dtd">
<svg version="1.1" id="Camada_1" xmlns="http://www.w3.org/2000/svg" xmlns:xlink="http://www.w3.org/1999/xlink" x="0px" y="0px"
	 width="182.816px" height="38.461px" viewBox="0 0 182.816 38.461" enable-background="new 0 0 182.816 38.461"
	 xml:space="preserve">
<g id="Guides_For_Artboard">
</g>
<g id="Layer_1">
	<path d="M23.478,17.643c0.836-2.237,3.025-3.748,5.422-3.748c3.185,0,5.783,2.598,5.783,5.782c0,3.183-2.599,5.781-5.783,5.781
		c-3.186,0-5.783-2.599-5.783-5.781C23.116,18.999,23.252,18.276,23.478,17.643"/>
	<path d="M52.661,20.74L47.303,35.4c-0.367,1.016-0.814,1.061-1.679,1.061H23.913c0,0-0.757,0,0-1.061
		c6.765-9.405,14.961-16.05,28.399-15.709C52.312,19.69,53.045,19.687,52.661,20.74"/>
	<path d="M5.111,18.661l5.36-14.663c0.364-1.015,0.812-1.06,1.676-1.06l21.802,0.003c0,0,0.754,0.003,0,1.057
		c-6.755,9.412-15.052,16.05-28.489,15.71C5.46,19.708,4.729,19.714,5.111,18.661"/>
	<path d="M3.802,34.354c-1.678-2.105-2.359-5.269-0.896-9.429l1.106-3.138c0.21-0.588,0.38-1.046,1.464-1.046h4.998
		c6.737,0,10.086,0,11.793,2.092s2.59,5.121,1.024,9.429L22.154,35.4c-0.188,0.522-0.329,1.061-1.626,1.061h-5.022
		C10.029,36.46,5.478,36.46,3.802,34.354"/>
	<path d="M54.078,5.01c1.677,2.106,2.357,5.269,0.894,9.426l-1.106,3.146c-0.208,0.585-0.379,1.046-1.464,1.046h-4.997
		c-6.738,0-10.088,0-11.795-2.096c-1.707-2.096-2.588-5.121-1.025-9.427l1.142-3.142c0.188-0.518,0.327-1.06,1.626-1.06h5.022
		C47.851,2.902,52.4,2.902,54.078,5.01"/>
	<path d="M154.81,2.894h25.901l-2.438,6.533H162.24l-2.449,6.582h14.968l-2.454,6.948h-14.971l-2.44,6.539h16.451l-2.505,6.952
		h-25.903L154.81,2.894 M107.925,23.65c1.142-6.518,4.083-11.72,8.825-15.614c4.742-3.892,10.403-5.838,16.984-5.838
		c0.711,0,1.465,0.016,2.263,0.046c0.801,0.029,1.609,0.091,2.43,0.184c2.034,0.248,3.847,0.896,5.438,1.946
		c1.592,1.051,2.191,2.904,1.803,5.561c-0.06,0.403-0.146,0.845-0.265,1.32c-0.115,0.481-0.275,0.984-0.475,1.507l-9.123-0.048
		c0.026-1.232-0.28-2.199-0.92-2.894c-0.64-0.695-1.963-1.043-3.972-1.043c-2.718,0-5.315,1.284-7.792,3.848
		c-2.479,2.56-4.132,5.406-4.961,8.527c-0.048,0.123-0.084,0.269-0.11,0.437c-0.022,0.172-0.052,0.349-0.078,0.533
		c-0.063,0.435-0.099,0.888-0.108,1.37c-0.007,0.475,0.014,0.963,0.065,1.459c0.161,1.421,0.703,2.726,1.626,3.916
		c0.923,1.188,2.435,1.783,4.533,1.783c0.526,0,1.261-0.049,2.199-0.139c0.94-0.096,2.085-0.42,3.435-0.974l1.876-5.517h-6.537
		l2.452-6.902h16.078l-6.333,18.211c-3.359,0.585-6.425,1.043-9.191,1.369c-2.766,0.324-5.153,0.484-7.161,0.484
		c-0.091,0-0.175,0-0.255,0c-0.077,0-0.146,0-0.208,0c-0.063,0-0.131,0-0.208,0s-0.163,0-0.255,0
		c-5.133,0.031-8.57-1.229-10.313-3.774c-1.741-2.55-2.324-5.788-1.748-9.711L107.925,23.65z M93.862,15.268
		c1.108,0.028,2.051-0.296,2.83-0.977c0.779-0.678,1.291-1.418,1.531-2.223c0.014-0.089,0.034-0.179,0.061-0.255
		c0.027-0.076,0.047-0.145,0.055-0.206c0.108-0.744-0.071-1.401-0.545-1.972c-0.474-0.571-1.342-0.857-2.607-0.857l-4.721-0.046
		l-2.071,6.537L93.862,15.268L93.862,15.268z M89.225,29.495c0.924,0.026,1.833-0.327,2.729-1.067
		c0.896-0.742,1.504-1.563,1.82-2.457c0.048-0.123,0.09-0.248,0.124-0.371c0.032-0.125,0.059-0.248,0.077-0.373
		c0.104-0.709-0.092-1.322-0.588-1.83c-0.498-0.51-1.426-0.765-2.785-0.765l-4.721-0.045l-2.497,6.907L89.225,29.495L89.225,29.495z
		 M83.629,2.894h12.049c3.578,0.031,6.747,0.277,9.506,0.741c2.761,0.463,3.932,2.115,3.514,4.958
		c-0.005,0.031-0.01,0.07-0.017,0.115c-0.008,0.048-0.014,0.086-0.019,0.117c-0.009,0.062-0.016,0.108-0.019,0.14
		c-0.006,0.029-0.014,0.077-0.022,0.138c-0.375,2.567-1.456,4.659-3.236,6.28c-1.784,1.621-4.089,2.694-6.915,3.221
		c2.64,0.74,4.287,1.675,4.941,2.805c0.651,1.125,0.86,2.508,0.619,4.146c-0.427,2.901-1.899,5.307-4.419,7.206
		c-2.52,1.9-5.155,3.08-7.911,3.544c-0.409,0.063-0.809,0.1-1.199,0.113c-0.387,0.018-0.768,0.027-1.138,0.027
		c-0.124,0-0.254,0-0.394,0s-0.272,0-0.395,0H71.43L83.629,2.894z M67.92,2.894h9.5L65.59,36.445h-9.872L67.92,2.894z"/>
</g>
</svg>
