<?xml version="1.0" encoding="utf-8"?>
<!-- Generator: Adobe Illustrator 16.0.3, SVG Export Plug-In . SVG Version: 6.00 Build 0)  -->
<!DOCTYPE svg PUBLIC "-//W3C//DTD SVG 1.0//EN" "http://www.w3.org/TR/2001/REC-SVG-20010904/DTD/svg10.dtd">
<svg version="1.0" id="pattern" xmlns="http://www.w3.org/2000/svg" xmlns:xlink="http://www.w3.org/1999/xlink" x="0px" y="0px"
	 width="192px" height="192px" viewBox="0 0 192 192" enable-background="new 0 0 192 192" xml:space="preserve">
<g>
	<line fill="none" stroke="#000000" stroke-width="4" stroke-miterlimit="10" x1="24" y1="28" x2="24" y2="42"/>
	<line fill="none" stroke="#000000" stroke-width="4" stroke-miterlimit="10" x1="24" y1="6" x2="24" y2="20"/>
	<line fill="none" stroke="#000000" stroke-width="4" stroke-miterlimit="10" x1="28" y1="24" x2="42" y2="24"/>
	<line fill="none" stroke="#000000" stroke-width="4" stroke-miterlimit="10" x1="6" y1="24" x2="20" y2="24"/>
</g>
<g>
	<line fill="none" stroke="#000000" stroke-width="4" stroke-miterlimit="10" x1="120" y1="28" x2="120" y2="42"/>
	<line fill="none" stroke="#000000" stroke-width="4" stroke-miterlimit="10" x1="120" y1="6" x2="120" y2="20"/>
	<line fill="none" stroke="#000000" stroke-width="4" stroke-miterlimit="10" x1="124" y1="24" x2="138" y2="24"/>
	<line fill="none" stroke="#000000" stroke-width="4" stroke-miterlimit="10" x1="102" y1="24" x2="116" y2="24"/>
</g>
<g>
	<line fill="none" stroke="#FFFFFF" stroke-width="4" stroke-miterlimit="10" x1="72" y1="76" x2="72" y2="90"/>
	<line fill="none" stroke="#FFFFFF" stroke-width="4" stroke-miterlimit="10" x1="72" y1="54" x2="72" y2="68"/>
	<line fill="none" stroke="#FFFFFF" stroke-width="4" stroke-miterlimit="10" x1="76" y1="72" x2="90" y2="72"/>
	<line fill="none" stroke="#FFFFFF" stroke-width="4" stroke-miterlimit="10" x1="54" y1="72" x2="68" y2="72"/>
</g>
<g>
	<line fill="none" stroke="#FFFFFF" stroke-width="4" stroke-miterlimit="10" x1="168" y1="76" x2="168" y2="90"/>
	<line fill="none" stroke="#FFFFFF" stroke-width="4" stroke-miterlimit="10" x1="168" y1="54" x2="168" y2="68"/>
	<line fill="none" stroke="#FFFFFF" stroke-width="4" stroke-miterlimit="10" x1="172" y1="72" x2="186" y2="72"/>
	<line fill="none" stroke="#FFFFFF" stroke-width="4" stroke-miterlimit="10" x1="150" y1="72" x2="164" y2="72"/>
</g>
<g>
	<line fill="none" stroke="#000000" stroke-width="4" stroke-miterlimit="10" x1="24" y1="124" x2="24" y2="138"/>
	<line fill="none" stroke="#000000" stroke-width="4" stroke-miterlimit="10" x1="24" y1="102" x2="24" y2="116"/>
	<line fill="none" stroke="#000000" stroke-width="4" stroke-miterlimit="10" x1="28" y1="120" x2="42" y2="120"/>
	<line fill="none" stroke="#000000" stroke-width="4" stroke-miterlimit="10" x1="6" y1="120" x2="20" y2="120"/>
</g>
<g>
	<line fill="none" stroke="#000000" stroke-width="4" stroke-miterlimit="10" x1="120" y1="124" x2="120" y2="138"/>
	<line fill="none" stroke="#000000" stroke-width="4" stroke-miterlimit="10" x1="120" y1="102" x2="120" y2="116"/>
	<line fill="none" stroke="#000000" stroke-width="4" stroke-miterlimit="10" x1="124" y1="120" x2="138" y2="120"/>
	<line fill="none" stroke="#000000" stroke-width="4" stroke-miterlimit="10" x1="102" y1="120" x2="116" y2="120"/>
</g>
<g>
	<line fill="none" stroke="#FFFFFF" stroke-width="4" stroke-miterlimit="10" x1="72" y1="172" x2="72" y2="186"/>
	<line fill="none" stroke="#FFFFFF" stroke-width="4" stroke-miterlimit="10" x1="72" y1="150" x2="72" y2="164"/>
	<line fill="none" stroke="#FFFFFF" stroke-width="4" stroke-miterlimit="10" x1="76" y1="168" x2="90" y2="168"/>
	<line fill="none" stroke="#FFFFFF" stroke-width="4" stroke-miterlimit="10" x1="54" y1="168" x2="68" y2="168"/>
</g>
<g>
	<line fill="none" stroke="#FFFFFF" stroke-width="4" stroke-miterlimit="10" x1="168" y1="172" x2="168" y2="186"/>
	<line fill="none" stroke="#FFFFFF" stroke-width="4" stroke-miterlimit="10" x1="168" y1="150" x2="168" y2="164"/>
	<line fill="none" stroke="#FFFFFF" stroke-width="4" stroke-miterlimit="10" x1="172" y1="168" x2="186" y2="168"/>
	<line fill="none" stroke="#FFFFFF" stroke-width="4" stroke-miterlimit="10" x1="150" y1="168" x2="164" y2="168"/>
</g>
</svg>
