<svg xmlns="http://www.w3.org/2000/svg" xmlns:xlink="http://www.w3.org/1999/xlink" xml:space="preserve" width="192" height="192" version="1.0" viewBox="0 0 192 192">
  <defs>
    <path id="a" d="M0 0h192v192H0z"/>
  </defs>
  <clipPath id="b">
    <use xlink:href="#a" overflow="visible"/>
  </clipPath>
  <path fill="none" stroke="#000" stroke-miterlimit="10" stroke-width="4" d="M6 8h36M6 16h24M6 24h18M6 32h14M6 40h10m86-32h24" clip-path="url(#b)"/>
  <path fill="none" stroke="#000" stroke-miterlimit="10" stroke-width="4" d="M102 16h26m-26 8h36m-36 8h14m-14 8h20"/>
  <path fill="none" stroke="#FFF" stroke-miterlimit="10" stroke-width="4" d="M54 56h36m-36 8h20m-20 8h24m-24 8h16m-16 8h14"/>
  <defs>
    <use xlink:href="#a" id="c"/>
  </defs>
  <clipPath id="d">
    <use xlink:href="#c" overflow="visible"/>
  </clipPath>
  <path fill="none" stroke="#FFF" stroke-miterlimit="10" stroke-width="4" d="M150 56h36" clip-path="url(#d)"/>
  <path fill="none" stroke="#FFF" stroke-miterlimit="10" stroke-width="4" d="M150 64h28m-28 8h24m-24 8h22m-22 8h18"/>
  <defs>
    <use xlink:href="#a" id="e"/>
  </defs>
  <clipPath id="f">
    <use xlink:href="#e" overflow="visible"/>
  </clipPath>
  <path fill="none" stroke="#000" stroke-miterlimit="10" stroke-width="4" d="M6 104h14m-14 8h26m-26 8h30m-30 8h32m-32 8h36" clip-path="url(#f)"/>
  <path fill="none" stroke="#000" stroke-miterlimit="10" stroke-width="4" d="M102 104h16m-16 8h36m-36 8h36m-36 8h18m-18 8h24"/>
  <path fill="none" stroke="#FFF" stroke-miterlimit="10" stroke-width="4" d="M54 152h12m-12 8h16m-16 8h22m-22 8h26m-26 8h32"/>
  <defs>
    <use xlink:href="#a" id="g"/>
  </defs>
  <clipPath id="h">
    <use xlink:href="#g" overflow="visible"/>
  </clipPath>
  <path fill="none" stroke="#FFF" stroke-miterlimit="10" stroke-width="4" d="M150 152h36" clip-path="url(#h)"/>
  <path fill="none" stroke="#FFF" stroke-miterlimit="10" stroke-width="4" d="M150 160h22m-22 8h18m-18 8h22m-22 8h32"/>
</svg>